<svg xmlns="http://www.w3.org/2000/svg" version="1.1" xmlns:xlink="http://www.w3.org/1999/xlink" xmlns:svgjs="http://svgjs.dev/svgjs" viewBox="0 0 1920 1080"><rect width="1920" height="1080" fill="#ec5e3c"></rect><g transform="matrix(7.04171909509728e-17,1.15,-1.15,7.04171909509728e-17,1557.8651123046875,-537.3948791503906)"><path d="M0,-1080C13.871584415017518,-932.7636966516746,90.89227429921185,-471.9392022781994,83.22950649010511,-196.58217991004773C75.56673868099837,78.77484245810393,-39.87626493266189,316.1094214783584,-45.97660685464044,572.14213420891C-52.076948776618984,828.1748469394615,38.9646871491271,1074.9711188414135,46.62745495823384,1339.6140964732617C54.29022276734058,1604.25707410511,7.771242493038973,2023.269016078877,0,2160L 1920 2160 L 1920 -1080 Z" fill="url(&quot;#SvgjsLinearGradient1288&quot;)"></path><path d="M213.33333333333331,-1080C195.55852129457855,-1018.0401039020295,110.84781302329192,-835.8749573451626,106.68446110080467,-708.2406234121771C102.52110917831742,-580.6062894791917,180.51014831445065,-466.4738222370414,188.35322179840978,-314.19399640208724C196.1962952823689,-161.91417056713303,167.0651929172324,58.499627423115044,153.74290200455948,205.43833159754826C140.42061109188657,352.37703577198147,116.28002837326198,453.47550757921965,108.41947632237233,567.438228644512C100.55892427148268,681.4009497098044,108.25417753842865,754.4547315629891,106.57958969922161,889.2146579893025C104.90500186001458,1023.9745844156159,68.91875436996787,1229.7926364674572,98.37194928713015,1375.9977872023924C127.82514420429243,1522.2029379373275,264.1385285278281,1635.7785269326455,283.2987592021953,1766.4455623989134C302.4589898765625,1897.1125978651812,224.9942376448103,2094.407593733152,213.33333333333331,2160L 1920 2160 L 1920 -1080 Z" fill="url(&quot;#SvgjsLinearGradient1289&quot;)"></path><path d="M426.66666666666663,-1080C426.21451858546993,-1015.2379745213185,428.15942475008995,-856.8885252921878,423.95377817948645,-691.427847127911C419.74813160888294,-525.9671689636343,387.71421121634785,-244.16520994557294,401.4327872430455,-87.23593101433957C415.1513632697431,69.6933479168938,487.59453943465024,121.15387798372385,506.26523433967236,250.1478264594891C524.9359292446945,379.1417749352544,521.8788287162711,507.0638619360258,513.4569566731782,686.7277598402519C505.03508463008524,866.391657744478,462.30900179741013,1155.9319065304398,455.7340020811148,1328.1312138848461C449.15900236481946,1500.3305212392524,478.8515142778143,1581.2788062808306,474.00695837540627,1719.9236039666896C469.1624024729982,1858.5684016525486,434.5567152847899,2086.6539339944484,426.66666666666663,2160L 1920 2160 L 1920 -1080 Z" fill="url(&quot;#SvgjsLinearGradient1290&quot;)"></path><path d="M640,-1080C649.6331088351066,-1028.0463857468592,693.4918612330468,-903.9176889386846,697.7986530106393,-768.2783144811553C702.1054447882318,-632.6389400236261,678.509206984623,-421.6716241898745,665.8407506655549,-266.1637532548244C653.1722943464868,-110.65588231977435,626.0630307987254,20.909827318391507,621.7879150962302,164.76891112914518C617.512799393735,308.6279949398988,647.1727156753554,475.10884506423287,640.1900564505836,596.9907496096977C633.2073972258117,718.8726541551625,572.5216946392529,782.8238020429951,579.8919597475989,896.0603384019341C587.2622248559449,1009.2968747608732,670.9571860652472,1137.8524051180486,684.411647100659,1276.409967763332C697.8661081360708,1414.9675304086152,668.020667143513,1580.1407089008555,660.6187259600699,1727.4057142736335C653.2167847766268,1874.6707196464115,643.4364543266784,2087.900952378939,640,2160L 1920 2160 L 1920 -1080 Z" fill="url(&quot;#SvgjsLinearGradient1291&quot;)"></path><path d="M853.3333333333333,-1080C835.0105430858183,-1029.8698130299179,725.8139369432176,-915.7835735756325,743.3965918482437,-779.2188781795071C760.9792467532698,-642.6541827833817,937.3409473376724,-418.0094312132039,958.8292627634896,-260.61182762324734C980.3175781893068,-103.21422403329075,891.0367844646667,13.680086454640247,872.3264844031469,165.16674336023237C853.6161843416271,316.65340026582453,849.3078814766878,531.2043696444877,846.567462394371,648.3081138103055C843.8270433120541,765.4118579761233,870.8650622058291,737.2167892017936,855.8839699092457,867.7892083551392C840.9028776126623,998.3616275084847,751.5925675233261,1270.9367321676264,756.6809086148706,1431.7426287303788C761.7692497064152,1592.5485252931312,870.3052790054355,1711.2483591867172,886.4140164585126,1832.624587731654C902.5227539115897,1954.0008162765907,858.8467805208631,2105.437431288609,853.3333333333333,2160L 1920 2160 L 1920 -1080 Z" fill="url(&quot;#SvgjsLinearGradient1292&quot;)"></path><path d="M1066.6666666666667,-1080C1078.2233706607262,-947.389104080493,1148.7184207075634,-560.1681364489295,1136.006890631024,-284.3346244829582C1123.2953605544844,-8.501112516986836,993.1702116335589,299.84150455811954,990.3974862074299,575.0010717958281C987.6247607813009,850.1606390335367,1106.6590079977102,1102.4562909092647,1119.3705380742497,1366.6227789432933C1132.0820681507892,1630.7892669773219,1075.4506452345972,2027.7704631572155,1066.6666666666667,2160L 1920 2160 L 1920 -1080 Z" fill="url(&quot;#SvgjsLinearGradient1293&quot;)"></path><path d="M1280,-1080C1268.4182705411943,-1018.7980066576013,1220.8643178785062,-878.3930410206336,1210.5096232471658,-712.7880399456072C1200.1549286158254,-547.1830388705808,1211.718453064301,-247.82758023386555,1217.871832211957,-86.3699935498419C1224.0252113596132,75.08759313418176,1222.6586255733089,99.10500733496823,1247.429898133102,255.95748015853474C1272.201170692895,412.8099529821012,1346.2099897009916,694.7262960249101,1366.4994675707155,854.7448433915572C1386.7889454404394,1014.7633907582043,1400.955691716868,1059.3812050406323,1369.1667653514457,1216.0687643584172C1337.3778389860236,1372.756323676202,1190.6270369367571,1637.5483266913361,1175.7659093781829,1794.8701992982667C1160.9047818196086,1952.1920719051973,1262.6276515630304,2099.1450332163777,1280,2160L 1920 2160 L 1920 -1080 Z" fill="url(&quot;#SvgjsLinearGradient1294&quot;)"></path><path d="M1493.3333333333333,-1080C1492.2177238146883,-985.9344176979573,1476.500765407999,-686.8001655500149,1486.6396762214629,-515.6065061877437C1496.7785870349267,-344.41284682547246,1547.225562924495,-221.83691558198709,1554.1667982141162,-52.83804382637243C1561.1080335037373,116.16082792924223,1546.2577945030603,302.4342251579667,1528.2870879591896,498.38672434594434C1510.316381415319,694.339223533922,1448.513809282437,927.5706501467913,1446.342558950893,1122.8769513014938C1444.1713086193488,1318.1832524561964,1507.427790239518,1497.3706898244086,1515.2595859699247,1670.2245312741597C1523.0913817003316,1843.078372723911,1496.9877087727652,2078.37075521236,1493.3333333333333,2160L 1920 2160 L 1920 -1080 Z" fill="url(&quot;#SvgjsLinearGradient1295&quot;)"></path><path d="M1706.6666666666665,-1080C1698.3378147224341,-1013.3103460606673,1656.4587270795769,-847.4488546765539,1656.693555001272,-679.8620763640035C1656.928382922967,-512.2752980514532,1700.0511088715257,-255.46915451222077,1708.0756341968365,-74.47933012469812C1716.1001595221474,106.51049426282452,1714.6825542161139,255.50131481009922,1704.8407069531377,406.0768699611323C1694.9988596901615,556.6524251121654,1640.973797652638,683.6213264611176,1649.024550618979,828.9740007815002C1657.07530358532,974.3266751018828,1728.469226507085,1125.5878762500088,1753.1452247511834,1278.1929158834273C1777.8212229952817,1430.7979555168458,1804.8269664309883,1597.6363912292497,1797.0805400835688,1744.604238582012C1789.3341137361494,1891.5720859347741,1721.7356455694835,2090.767373097002,1706.6666666666665,2160L 1920 2160 L 1920 -1080 Z" fill="url(&quot;#SvgjsLinearGradient1296&quot;)"></path></g><defs><linearGradient x1="0.1" y1="0" x2="0" y2="1" id="SvgjsLinearGradient1288"><stop stop-color="#ec5e3c" offset="0"></stop><stop stop-color="#ec413c" offset="0"></stop></linearGradient><linearGradient x1="0.1" y1="0" x2="0" y2="1" id="SvgjsLinearGradient1289"><stop stop-color="#ee7255" offset="0"></stop><stop stop-color="#ee5855" offset="0.1111111111111111"></stop></linearGradient><linearGradient x1="0.1" y1="0" x2="0" y2="1" id="SvgjsLinearGradient1290"><stop stop-color="#f1876e" offset="0"></stop><stop stop-color="#f1716e" offset="0.2222222222222222"></stop></linearGradient><linearGradient x1="0.1" y1="0" x2="0" y2="1" id="SvgjsLinearGradient1291"><stop stop-color="#f39b86" offset="0"></stop><stop stop-color="#f38986" offset="0.3333333333333333"></stop></linearGradient><linearGradient x1="0.1" y1="0" x2="0" y2="1" id="SvgjsLinearGradient1292"><stop stop-color="#f6b09f" offset="0"></stop><stop stop-color="#f6a19f" offset="0.4444444444444444"></stop></linearGradient><linearGradient x1="0.1" y1="0" x2="0" y2="1" id="SvgjsLinearGradient1293"><stop stop-color="#f8c4b8" offset="0"></stop><stop stop-color="#f8b9b8" offset="0.5555555555555556"></stop></linearGradient><linearGradient x1="0.1" y1="0" x2="0" y2="1" id="SvgjsLinearGradient1294"><stop stop-color="#fad9d1" offset="0"></stop><stop stop-color="#fad2d1" offset="0.6666666666666666"></stop></linearGradient><linearGradient x1="0.1" y1="0" x2="0" y2="1" id="SvgjsLinearGradient1295"><stop stop-color="#fdede9" offset="0"></stop><stop stop-color="#fdeae9" offset="0.7777777777777778"></stop></linearGradient><linearGradient x1="0.1" y1="0" x2="0" y2="1" id="SvgjsLinearGradient1296"><stop stop-color="#ffffff" offset="0"></stop><stop stop-color="#ffffff" offset="0.8888888888888888"></stop></linearGradient></defs></svg>